<?xml version="1.0" encoding="utf-8"?>
<svg viewBox="380.075 104.051 42.959 21.605" width="42.959" height="21.605" xmlns="http://www.w3.org/2000/svg">
  <path d="M 158.701 172.617 C 157.482 172.295 156.559 171.332 156.296 170.106 C 156.175 169.542 156.174 169.253 156.292 168.707 C 156.422 168.106 156.683 167.618 157.135 167.134 C 157.814 166.406 158.914 166.002 159.933 166.107 L 160.352 166.15 L 159.678 164.87 C 159.308 164.166 158.817 163.239 158.587 162.809 C 158.357 162.38 158.188 162.01 158.212 161.987 C 158.236 161.964 159.448 161.944 160.905 161.944 L 163.555 161.944 L 163.555 162.525 L 163.555 163.106 L 161.808 163.106 C 160.848 163.106 160.072 163.129 160.084 163.158 C 160.203 163.442 163.249 169.104 163.271 169.083 C 163.287 169.067 163.217 168.899 163.116 168.709 C 162.934 168.37 162.931 168.345 162.934 167.299 C 162.937 166.28 162.946 166.208 163.145 165.621 C 163.603 164.274 164.491 163.252 165.821 162.544 C 166.038 162.429 166.173 162.334 166.122 162.333 C 166.071 162.332 166.044 162.316 166.063 162.298 C 166.082 162.279 166.149 162.283 166.211 162.307 C 166.298 162.34 166.249 162.389 165.991 162.528 C 165.223 162.94 164.434 163.667 163.941 164.415 C 163.656 164.849 163.347 165.6 163.219 166.17 C 163.092 166.734 163.11 168.136 163.25 168.64 C 163.312 168.863 163.345 169.073 163.324 169.107 C 163.303 169.14 163.688 169.938 164.18 170.879 L 165.074 172.59 L 164.396 172.588 L 163.719 172.587 L 163.226 171.653 C 162.955 171.14 162.717 170.719 162.698 170.719 C 162.678 170.719 162.581 170.882 162.481 171.082 C 162.256 171.532 161.687 172.127 161.267 172.351 C 160.598 172.709 159.485 172.824 158.701 172.617 Z M 160.651 171.383 C 162.193 170.617 162.21 168.203 160.679 167.436 C 160.074 167.132 159.155 167.15 158.544 167.476 C 157.126 168.234 157.088 170.465 158.478 171.308 C 159.074 171.67 160.01 171.702 160.651 171.383 Z M 159.329 171.266 C 159.659 171.071 160.019 170.605 160.164 170.184 C 160.317 169.737 160.302 169.002 160.13 168.55 C 159.995 168.196 159.508 167.628 159.193 167.458 C 159.089 167.402 159.106 167.392 159.299 167.398 C 159.746 167.413 160.315 167.85 160.599 168.397 C 160.863 168.905 160.883 169.783 160.644 170.344 C 160.511 170.656 160.044 171.149 159.733 171.305 C 159.44 171.452 159.341 171.465 159.518 171.334 C 159.682 171.212 159.565 171.211 159.35 171.332 C 159.063 171.493 159.043 171.434 159.329 171.266 Z M 160.033 170.906 C 160.711 170.166 160.78 168.928 160.192 168.088 C 160.003 167.819 159.532 167.428 159.396 167.428 C 159.36 167.428 159.447 167.511 159.589 167.612 C 160.241 168.076 160.496 168.576 160.497 169.396 C 160.498 169.889 160.472 170.032 160.325 170.341 C 160.23 170.541 160.031 170.825 159.882 170.97 C 159.734 171.116 159.64 171.235 159.673 171.235 C 159.705 171.235 159.868 171.087 160.033 170.906 Z M 160.026 171.211 C 160.358 170.964 160.699 170.484 160.805 170.116 C 160.92 169.72 160.905 168.995 160.774 168.622 C 160.641 168.244 160.331 167.823 160.007 167.585 C 159.825 167.45 159.809 167.424 159.933 167.461 C 160.02 167.486 160.073 167.481 160.053 167.449 C 159.986 167.342 160.433 167.406 160.703 167.543 C 161.606 167.999 162.005 169.306 161.561 170.35 C 161.43 170.657 160.961 171.15 160.653 171.305 C 160.359 171.452 160.261 171.465 160.438 171.334 C 160.591 171.22 160.515 171.205 160.316 171.309 C 160.238 171.35 160.079 171.392 159.962 171.401 L 159.749 171.417 L 160.026 171.211 Z M 160.308 171.231 C 160.591 171.06 160.949 170.576 161.084 170.184 C 161.237 169.736 161.222 169.003 161.049 168.544 C 160.905 168.161 160.322 167.493 160.133 167.493 C 160.083 167.493 160.145 167.562 160.271 167.646 C 160.397 167.73 160.6 167.936 160.721 168.103 C 161.42 169.061 161.203 170.499 160.26 171.17 C 159.95 171.391 159.981 171.43 160.308 171.231 Z M 160.924 170.94 C 161.29 170.55 161.456 170.164 161.499 169.597 C 161.542 169.037 161.407 168.51 161.113 168.09 C 160.923 167.819 160.452 167.428 160.316 167.428 C 160.28 167.428 160.367 167.511 160.509 167.612 C 161.161 168.076 161.415 168.576 161.417 169.396 C 161.417 169.889 161.391 170.032 161.245 170.341 C 161.149 170.541 160.95 170.825 160.802 170.97 C 160.654 171.116 160.558 171.235 160.59 171.235 C 160.622 171.235 160.772 171.102 160.924 170.94 Z M 167.195 172.565 C 164.585 171.885 162.9 169.415 163.221 166.738 C 163.448 164.845 164.498 163.357 166.201 162.516 C 167.032 162.106 167.664 161.99 168.876 162.026 C 170.036 162.06 170.472 162.163 171.306 162.601 C 171.855 162.889 172.686 163.518 172.686 163.646 C 172.686 163.691 172.56 163.89 172.407 164.087 C 172.253 164.284 172.098 164.493 172.062 164.552 C 172.005 164.644 171.94 164.607 171.594 164.282 C 171.134 163.85 170.478 163.489 169.861 163.328 C 169.292 163.179 168.137 163.176 167.57 163.322 C 166.299 163.649 165.198 164.652 164.759 165.882 C 164.509 166.582 164.466 167.773 164.665 168.484 C 164.946 169.489 165.521 170.297 166.339 170.835 C 167.122 171.348 167.541 171.461 168.679 171.461 C 169.479 171.461 169.705 171.438 170.094 171.318 C 170.643 171.148 171.221 170.794 171.651 170.364 C 171.823 170.192 171.975 170.064 171.988 170.079 C 172.123 170.225 172.686 170.996 172.686 171.035 C 172.686 171.151 171.965 171.745 171.504 172.009 C 171.234 172.164 170.746 172.377 170.421 172.482 C 169.887 172.655 169.727 172.676 168.81 172.697 C 167.898 172.717 167.729 172.704 167.195 172.565 Z M 175.61 172.615 C 174.599 172.395 173.795 171.945 172.977 171.14 C 172.345 170.518 171.957 169.905 171.683 169.092 C 171.505 168.562 171.478 168.385 171.453 167.557 C 171.429 166.769 171.446 166.534 171.561 166.06 C 171.714 165.426 171.98 164.81 172.298 164.352 C 172.807 163.619 173.842 162.739 174.519 162.463 C 174.65 162.41 174.702 162.359 174.656 162.331 C 174.614 162.306 174.664 162.285 174.766 162.286 C 174.869 162.287 175.189 162.221 175.478 162.141 C 176.217 161.935 177.469 161.929 178.289 162.127 C 180.045 162.55 181.503 163.849 182.086 165.511 C 182.496 166.679 182.496 167.962 182.085 169.167 C 181.847 169.862 181.582 170.32 181.082 170.893 C 180.4 171.677 179.417 172.297 178.434 172.564 C 177.869 172.718 176.22 172.748 175.61 172.615 L 175.61 172.615 Z M 177.977 171.393 C 179.476 171.011 180.594 169.86 180.937 168.345 C 181.096 167.641 181.037 166.526 180.806 165.88 C 180.365 164.646 179.27 163.648 177.999 163.323 C 177.443 163.18 176.342 163.183 175.778 163.329 C 173.494 163.919 172.209 166.404 172.974 168.751 C 173.378 169.989 174.455 171.011 175.731 171.37 C 176.26 171.519 177.436 171.531 177.977 171.393 L 177.977 171.393 Z M 177.416 171.17 C 177.492 171.122 177.494 171.107 177.425 171.107 C 177.376 171.106 177.509 170.98 177.721 170.827 C 178.177 170.496 178.711 169.936 178.948 169.538 C 179.042 169.381 179.2 169.024 179.299 168.744 C 179.463 168.284 179.48 168.15 179.479 167.364 C 179.478 166.596 179.457 166.432 179.303 165.977 C 178.97 164.992 178.252 164.128 177.383 163.667 C 177.275 163.61 177.211 163.561 177.242 163.56 C 177.405 163.552 178.137 164.017 178.472 164.341 C 178.972 164.825 179.289 165.302 179.492 165.874 C 179.92 167.083 179.789 168.485 179.15 169.533 C 178.895 169.951 178.292 170.588 177.954 170.794 C 177.835 170.867 177.753 170.942 177.772 170.961 C 177.829 171.017 178.507 170.483 178.775 170.17 C 179.49 169.335 179.803 168.48 179.803 167.364 C 179.804 166.574 179.686 166.055 179.356 165.392 C 179.085 164.848 178.482 164.18 177.941 163.825 C 177.415 163.48 177.596 163.418 178.224 163.728 C 179.495 164.354 180.372 165.843 180.372 167.372 C 180.372 168.88 179.478 170.373 178.19 171.016 C 177.846 171.187 177.664 171.225 177.974 171.061 C 178.663 170.695 179.36 169.961 179.712 169.23 C 180.026 168.578 180.132 167.985 180.091 167.113 C 180.038 165.997 179.729 165.234 179.016 164.458 C 178.751 164.171 178.15 163.718 178.099 163.768 C 178.081 163.786 178.17 163.864 178.296 163.941 C 178.676 164.171 179.367 164.957 179.611 165.435 C 179.949 166.098 180.068 166.717 180.026 167.583 C 179.983 168.461 179.789 169.067 179.349 169.7 C 178.956 170.265 178.468 170.699 177.891 170.997 C 177.468 171.215 177.179 171.32 177.416 171.17 Z M 177.679 171.041 C 177.733 171.007 177.748 170.979 177.711 170.979 C 177.675 170.979 177.601 171.007 177.547 171.041 C 177.493 171.076 177.478 171.104 177.514 171.104 C 177.551 171.104 177.624 171.076 177.679 171.041 Z M 177.941 163.654 C 177.851 163.603 177.748 163.562 177.711 163.562 C 177.675 163.562 177.72 163.603 177.81 163.654 C 177.9 163.705 178.004 163.746 178.04 163.746 C 178.076 163.746 178.032 163.705 177.941 163.654 Z M 178.219 171.192 C 178.172 171.173 178.298 171.056 178.515 170.917 C 178.953 170.638 179.611 169.969 179.864 169.545 C 179.96 169.384 180.12 169.024 180.219 168.744 C 180.382 168.284 180.4 168.15 180.399 167.364 C 180.397 166.596 180.376 166.432 180.223 165.977 C 179.89 164.992 179.172 164.128 178.303 163.667 C 178.194 163.61 178.131 163.561 178.162 163.56 C 178.32 163.553 179.047 164.01 179.38 164.327 C 180.528 165.416 180.937 166.99 180.496 168.62 C 180.348 169.168 179.962 169.773 179.415 170.315 C 179.119 170.608 178.906 170.848 178.94 170.848 C 178.975 170.848 179.234 170.618 179.517 170.336 C 180.362 169.496 180.726 168.602 180.726 167.364 C 180.726 166.571 180.608 166.061 180.268 165.377 C 179.99 164.819 179.392 164.162 178.828 163.796 C 178.375 163.501 178.526 163.528 179.048 163.835 C 179.558 164.135 180.243 164.871 180.522 165.419 C 180.868 166.098 180.988 166.711 180.946 167.583 C 180.888 168.773 180.457 169.695 179.6 170.464 C 179.316 170.72 178.418 171.257 178.321 171.23 C 178.311 171.227 178.265 171.21 178.219 171.192 Z M 178.607 171.037 C 178.754 170.963 178.86 170.89 178.844 170.874 C 178.828 170.858 178.684 170.918 178.526 171.007 C 178.177 171.202 178.235 171.223 178.607 171.037 Z M 162.044 172.3 C 161.924 172.084 161.902 171.993 161.958 171.938 C 162.014 171.883 162.076 171.947 162.203 172.192 C 162.397 172.57 162.402 172.59 162.289 172.59 C 162.243 172.59 162.133 172.459 162.044 172.3 Z M 162.311 172.223 C 162.093 171.827 162.079 171.777 162.169 171.722 C 162.202 171.702 162.335 171.876 162.465 172.108 C 162.733 172.588 162.734 172.59 162.607 172.59 C 162.555 172.59 162.422 172.425 162.311 172.223 Z M 162.536 172.073 C 162.37 171.738 162.303 171.535 162.344 171.494 C 162.386 171.453 162.519 171.634 162.723 172.01 C 162.995 172.509 163.021 172.59 162.916 172.59 C 162.827 172.59 162.721 172.445 162.536 172.073 Z M 162.78 171.959 C 162.569 171.563 162.464 171.297 162.498 171.244 C 162.555 171.153 162.712 171.386 163.087 172.12 C 163.32 172.577 163.323 172.59 163.204 172.59 C 163.156 172.59 162.965 172.306 162.78 171.959 Z M 163.033 171.864 C 162.663 171.185 162.563 170.912 162.687 170.912 C 162.732 170.912 163.62 172.477 163.62 172.558 C 163.62 172.575 163.577 172.59 163.525 172.59 C 163.47 172.59 163.259 172.278 163.033 171.864 Z M 156.703 172.315 C 155.959 171.907 155.368 171.169 155.119 170.336 C 154.968 169.83 154.981 168.903 155.146 168.377 C 155.397 167.581 155.997 166.88 156.778 166.471 C 157.301 166.197 157.369 166.211 156.883 166.493 C 156.461 166.738 155.952 167.239 155.699 167.659 C 155.125 168.613 155.076 169.907 155.575 170.944 C 155.794 171.398 156.425 172.07 156.876 172.328 C 157.333 172.59 157.183 172.578 156.703 172.315 Z M 157.018 172.315 C 156.204 171.888 155.578 171.046 155.376 170.106 C 155.255 169.542 155.255 169.253 155.372 168.707 C 155.501 168.109 155.763 167.618 156.207 167.143 C 156.644 166.674 157.431 166.217 157.62 166.321 C 157.715 166.373 157.7 166.397 157.516 166.49 C 157.398 166.55 157.315 166.612 157.331 166.628 C 157.347 166.644 157.49 166.584 157.649 166.495 C 158.095 166.245 158.103 166.302 157.662 166.582 C 157.275 166.827 156.748 167.39 156.547 167.772 C 156.035 168.744 156.019 169.973 156.504 170.953 C 156.735 171.419 157.348 172.071 157.795 172.328 C 157.982 172.435 158.105 172.522 158.069 172.521 C 158.033 172.521 157.93 172.479 157.839 172.428 C 157.65 172.322 157.553 172.306 157.605 172.389 C 157.625 172.421 157.595 172.465 157.538 172.486 C 157.41 172.534 157.479 172.557 157.018 172.315 L 157.018 172.315 Z M 157.408 172.36 C 157.286 172.264 157.287 172.262 157.445 172.297 C 157.598 172.332 157.601 172.329 157.48 172.252 C 157.409 172.207 157.168 172.002 156.945 171.796 C 156.266 171.169 155.934 170.392 155.934 169.43 C 155.934 168.428 156.202 167.767 156.894 167.063 C 157.116 166.838 157.274 166.654 157.245 166.654 C 157.128 166.654 156.452 167.412 156.272 167.746 C 155.977 168.294 155.868 168.736 155.868 169.394 C 155.868 170.447 156.135 171.1 156.862 171.83 C 157.101 172.07 157.282 172.267 157.264 172.267 C 157.15 172.267 156.741 171.946 156.458 171.633 C 155.516 170.596 155.335 169.056 156.009 167.81 C 156.253 167.358 156.827 166.776 157.252 166.549 C 157.431 166.453 157.564 166.362 157.548 166.347 C 157.533 166.331 157.366 166.401 157.179 166.501 C 156.763 166.723 156.123 167.395 155.904 167.84 C 155.137 169.395 155.628 171.336 157.009 172.213 C 157.396 172.458 157.655 172.554 157.408 172.36 L 157.408 172.36 Z M 156.228 172.213 C 154.45 171.105 154.157 168.614 155.626 167.1 C 155.949 166.768 156.69 166.278 156.762 166.349 C 156.78 166.366 156.659 166.458 156.495 166.552 C 155.835 166.932 155.2 167.803 155.011 168.59 C 154.886 169.107 154.914 169.96 155.074 170.461 C 155.298 171.168 155.873 171.92 156.439 172.245 C 156.595 172.335 156.722 172.42 156.722 172.434 C 156.722 172.499 156.597 172.442 156.228 172.213 Z M 165.251 172.201 C 165.046 172.097 164.859 171.982 164.836 171.946 C 164.784 171.863 164.887 171.859 164.97 171.941 C 165.005 171.975 165.195 172.091 165.394 172.198 C 165.856 172.448 165.743 172.45 165.251 172.201 L 165.251 172.201 Z M 165.493 172.151 C 164.872 171.824 164.679 171.692 164.594 171.536 C 164.539 171.435 164.588 171.453 164.81 171.616 C 165.306 171.981 165.592 172.158 165.628 172.123 C 165.647 172.104 165.534 172.015 165.376 171.924 C 164.955 171.682 164.421 171.188 164.274 170.906 C 164.163 170.693 164.218 170.731 164.688 171.194 C 164.986 171.487 165.422 171.849 165.656 171.997 C 165.891 172.146 166.039 172.267 165.985 172.268 C 165.898 172.269 165.898 172.276 165.985 172.332 C 166.232 172.488 165.907 172.369 165.492 172.151 L 165.493 172.151 Z M 165.854 172.202 C 165.8 172.168 165.726 172.14 165.69 172.14 C 165.653 172.14 165.668 172.168 165.722 172.202 C 165.777 172.237 165.851 172.265 165.887 172.265 C 165.923 172.265 165.908 172.237 165.854 172.202 Z M 173.188 172.195 C 172.977 172.088 172.79 172.015 172.772 172.032 C 172.754 172.05 172.853 172.123 172.992 172.195 C 173.131 172.267 173.221 172.327 173.192 172.329 C 173.033 172.337 172.038 171.737 172.151 171.7 C 172.19 171.687 172.327 171.756 172.456 171.852 C 172.584 171.948 172.705 172.012 172.724 171.993 C 172.743 171.974 172.654 171.895 172.525 171.817 C 172.397 171.74 172.292 171.649 172.292 171.617 C 172.292 171.52 172.337 171.543 172.759 171.848 C 172.98 172.007 173.192 172.138 173.232 172.138 C 173.322 172.138 173.276 172.1 172.801 171.789 C 172.593 171.653 172.423 171.516 172.423 171.485 C 172.423 171.391 172.491 171.419 172.746 171.617 C 172.879 171.721 173.149 171.91 173.345 172.036 C 173.541 172.163 173.658 172.267 173.604 172.268 C 173.52 172.269 173.52 172.277 173.606 172.332 C 173.818 172.466 173.552 172.38 173.188 172.195 Z M 173.474 172.202 C 173.42 172.168 173.346 172.14 173.31 172.14 C 173.274 172.14 173.289 172.168 173.343 172.202 C 173.397 172.237 173.471 172.265 173.507 172.265 C 173.543 172.265 173.528 172.237 173.474 172.202 Z M 173.77 172.184 C 173.032 171.792 172.399 171.299 172.633 171.299 C 172.687 171.299 172.787 171.36 172.855 171.434 C 173.029 171.622 173.605 172.031 173.644 171.993 C 173.661 171.976 173.593 171.91 173.493 171.846 C 173.143 171.626 172.686 171.222 172.721 171.166 C 172.741 171.135 172.985 171.298 173.263 171.528 C 173.542 171.757 173.953 172.039 174.176 172.153 C 174.4 172.268 174.573 172.371 174.561 172.383 C 174.549 172.395 174.355 172.314 174.131 172.202 C 173.907 172.091 173.709 172.015 173.691 172.033 C 173.673 172.05 173.802 172.138 173.977 172.227 C 174.152 172.317 174.266 172.391 174.23 172.392 C 174.194 172.392 173.987 172.299 173.77 172.184 Z M 165.029 172.231 C 164.909 172.137 164.911 172.135 165.066 172.208 C 165.267 172.302 165.304 172.332 165.22 172.332 C 165.185 172.332 165.099 172.286 165.029 172.231 Z M 169.277 171.111 C 169.206 171.067 169.232 171.03 169.39 170.95 C 169.503 170.893 169.789 170.668 170.026 170.451 C 170.262 170.233 170.475 170.075 170.499 170.098 C 170.563 170.161 170.067 170.64 169.743 170.829 C 169.588 170.919 169.477 171.008 169.497 171.028 C 169.557 171.087 170.248 170.585 170.514 170.288 C 170.7 170.081 170.776 170.032 170.803 170.102 C 170.852 170.227 170.285 170.715 169.79 170.974 C 169.367 171.196 169.399 171.187 169.277 171.111 Z M 170.032 170.92 C 170.245 170.783 170.551 170.536 170.712 170.372 C 171.008 170.071 171.109 170.013 171.109 170.145 C 171.109 170.239 170.605 170.698 170.364 170.824 C 170.261 170.878 170.192 170.936 170.211 170.954 C 170.274 171.016 170.552 170.826 170.962 170.439 C 171.188 170.227 171.395 170.074 171.422 170.101 C 171.449 170.128 171.299 170.307 171.09 170.499 C 170.88 170.691 170.74 170.848 170.777 170.848 C 170.815 170.848 171.036 170.664 171.27 170.439 C 171.54 170.179 171.707 170.06 171.727 170.113 C 171.806 170.315 170.471 171.223 170.229 171.132 C 170.172 171.11 170.141 171.066 170.161 171.034 C 170.213 170.951 170.116 170.967 169.927 171.073 C 169.588 171.264 169.658 171.161 170.032 170.92 Z M 170.527 171.004 C 170.637 170.948 170.711 170.887 170.691 170.867 C 170.671 170.848 170.558 170.893 170.439 170.968 C 170.185 171.127 170.24 171.15 170.527 171.004 Z M 170.534 169.996 C 170.495 169.95 170.398 169.752 170.318 169.557 C 169.753 168.177 169.731 166.637 170.256 165.312 C 170.504 164.686 170.557 164.602 170.648 164.692 C 170.698 164.74 170.673 164.863 170.562 165.11 C 170.239 165.837 170.157 166.295 170.157 167.364 C 170.157 168.42 170.219 168.775 170.542 169.561 C 170.692 169.925 170.687 170.177 170.534 169.996 Z M 170.664 169.634 C 170.349 168.943 170.248 168.495 170.209 167.617 C 170.169 166.713 170.264 166.079 170.557 165.312 C 170.92 164.359 171.087 164.443 170.759 165.413 C 170.296 166.782 170.295 167.967 170.755 169.291 C 171.031 170.086 170.972 170.31 170.664 169.634 L 170.664 169.634 Z M 170.977 169.663 C 170.475 168.575 170.357 167.135 170.671 165.939 C 170.86 165.219 171.15 164.604 171.253 164.705 C 171.299 164.75 171.268 164.9 171.154 165.18 C 170.82 166.005 170.753 166.369 170.753 167.364 C 170.753 168.359 170.82 168.723 171.154 169.547 C 171.274 169.842 171.3 169.976 171.249 170.027 C 171.198 170.077 171.121 169.975 170.977 169.663 Z M 171.455 169.996 C 171.345 169.864 171.069 169.158 170.938 168.676 C 170.777 168.081 170.774 166.677 170.932 166.052 C 171.084 165.456 171.435 164.642 171.527 164.674 C 171.626 164.709 171.614 164.764 171.331 165.557 C 171.112 166.17 171.086 166.315 171.058 167.079 C 171.023 168.044 171.126 168.692 171.442 169.491 C 171.616 169.933 171.623 170.198 171.455 169.996 L 171.455 169.996 Z M 171.601 169.673 C 170.997 168.355 170.95 166.694 171.476 165.312 C 171.84 164.358 172.007 164.444 171.678 165.415 C 171.174 166.905 171.224 168.244 171.84 169.734 C 171.9 169.881 171.905 169.963 171.856 170.011 C 171.807 170.059 171.732 169.959 171.601 169.673 Z M 162.675 167.896 C 162.569 167.665 162.556 167.527 162.588 166.994 C 162.645 166.069 162.895 165.261 163.367 164.479 C 163.643 164.021 164.602 163.058 165.019 162.819 C 165.192 162.72 165.318 162.623 165.298 162.603 C 165.235 162.541 164.521 163.061 164.121 163.461 C 163.102 164.477 162.51 165.813 162.501 167.119 L 162.498 167.525 L 162.373 167.294 C 162.263 167.089 162.256 167.007 162.315 166.584 C 162.399 165.979 162.714 165.042 162.976 164.623 C 163.298 164.106 163.818 163.507 164.244 163.164 C 164.728 162.774 165.603 162.315 165.754 162.372 C 165.838 162.404 165.798 162.45 165.579 162.577 C 164.365 163.279 163.408 164.469 163.025 165.753 C 162.92 166.106 162.871 166.492 162.84 167.201 L 162.799 168.168 L 162.675 167.896 Z M 165.591 162.493 C 165.681 162.442 165.726 162.401 165.69 162.401 C 165.653 162.401 165.55 162.442 165.46 162.493 C 165.369 162.544 165.325 162.585 165.361 162.585 C 165.397 162.585 165.501 162.544 165.591 162.493 Z M 162.071 166.774 C 161.918 166.531 162.268 165.286 162.683 164.597 C 163.155 163.812 164.113 162.923 164.889 162.549 C 165.133 162.432 165.233 162.353 165.179 162.32 C 165.135 162.292 165.128 162.269 165.164 162.269 C 165.2 162.269 165.271 162.294 165.321 162.325 C 165.392 162.37 165.383 162.391 165.278 162.424 C 165.016 162.505 164.31 162.997 163.896 163.387 C 163.389 163.863 162.969 164.425 162.703 164.984 C 162.492 165.426 162.241 166.303 162.241 166.596 C 162.241 166.794 162.146 166.893 162.071 166.774 Z M 161.813 166.264 C 161.755 166.085 162.004 165.3 162.287 164.768 C 162.727 163.942 163.571 163.102 164.448 162.617 C 164.915 162.359 165.107 162.316 164.671 162.568 C 163.341 163.335 162.307 164.696 162.032 166.042 C 161.956 166.413 161.884 166.486 161.813 166.264 Z M 160.027 166.021 C 159.938 165.967 157.905 162.128 157.905 162.015 C 157.905 161.78 158.124 162.089 158.613 163.013 C 160.206 166.025 160.276 166.172 160.027 166.021 Z M 158.671 165.864 C 158.376 165.394 156.665 162.048 156.695 162 C 156.779 161.868 156.824 161.945 158.328 164.799 C 158.784 165.665 158.936 166.009 158.864 166.009 C 158.808 166.009 158.721 165.944 158.671 165.864 Z M 158.016 164.052 C 157.449 162.976 156.985 162.059 156.985 162.015 C 156.985 161.753 157.259 162.195 158.184 163.949 C 158.753 165.029 159.219 165.933 159.219 165.96 C 159.219 165.987 159.18 166.009 159.133 166.009 C 159.086 166.009 158.583 165.128 158.016 164.052 Z M 158.788 164.928 C 158.473 164.334 157.999 163.439 157.733 162.938 C 157.294 162.114 157.235 161.944 157.384 161.944 C 157.427 161.944 159.547 165.897 159.547 165.977 C 159.547 165.995 159.505 166.009 159.453 166.009 C 159.399 166.009 159.122 165.559 158.788 164.928 Z M 159.591 165.864 C 159.295 165.394 157.585 162.048 157.615 162 C 157.699 161.866 157.786 162.013 159.182 164.67 C 159.683 165.624 159.856 166.009 159.783 166.009 C 159.727 166.009 159.641 165.944 159.591 165.864 Z M 170.121 164.356 C 169.96 164.192 169.654 163.945 169.44 163.807 C 168.974 163.507 169.02 163.481 169.527 163.758 C 169.877 163.948 170.518 164.496 170.518 164.603 C 170.518 164.714 170.401 164.641 170.121 164.356 Z M 170.447 164.357 C 170.287 164.196 169.983 163.953 169.77 163.816 C 169.392 163.572 169.389 163.567 169.606 163.584 C 169.889 163.607 170.27 163.798 170.707 164.138 C 171.047 164.402 171.165 164.557 171.084 164.636 C 171.061 164.658 170.941 164.56 170.817 164.418 C 170.577 164.142 169.885 163.641 169.825 163.7 C 169.806 163.719 169.916 163.809 170.072 163.899 C 170.41 164.095 170.883 164.56 170.798 164.612 C 170.764 164.632 170.606 164.517 170.447 164.357 Z M 171.041 164.356 C 170.88 164.192 170.573 163.945 170.36 163.807 C 169.909 163.517 169.923 163.488 170.4 163.725 C 170.726 163.888 171.438 164.487 171.438 164.599 C 171.438 164.714 171.324 164.644 171.041 164.356 Z M 171.367 164.357 C 171.207 164.196 170.899 163.947 170.682 163.804 C 170.233 163.506 170.377 163.525 170.896 163.832 C 171.291 164.066 171.808 164.557 171.718 164.612 C 171.684 164.632 171.526 164.517 171.367 164.357 L 171.367 164.357 Z M 172.722 163.563 C 172.679 163.494 173.368 162.905 173.675 162.749 C 173.781 162.695 173.868 162.637 173.868 162.62 C 173.868 162.528 173.683 162.633 173.181 163.009 C 172.873 163.24 172.606 163.428 172.588 163.428 C 172.369 163.428 173.113 162.867 173.752 162.551 C 174.169 162.344 174.413 162.259 174.197 162.396 C 174.11 162.451 174.11 162.459 174.196 162.46 C 174.25 162.46 174.109 162.579 173.883 162.724 C 173.657 162.87 173.312 163.132 173.117 163.307 C 172.922 163.482 172.744 163.597 172.722 163.563 L 172.722 163.563 Z M 174.066 162.525 C 174.12 162.491 174.134 162.463 174.098 162.463 C 174.062 162.463 173.988 162.491 173.934 162.525 C 173.88 162.559 173.865 162.588 173.901 162.588 C 173.937 162.588 174.011 162.559 174.066 162.525 Z M 172.423 163.233 C 172.423 163.157 173.29 162.589 173.6 162.463 C 173.753 162.401 173.788 162.362 173.725 162.323 C 173.677 162.293 173.668 162.269 173.704 162.269 C 173.74 162.269 173.807 162.292 173.852 162.32 C 173.906 162.354 173.841 162.415 173.651 162.505 C 173.496 162.58 173.169 162.788 172.925 162.97 C 172.454 163.32 172.423 163.336 172.423 163.233 Z M 172.292 163.107 C 172.292 163.068 172.44 162.945 172.621 162.835 C 172.802 162.724 172.935 162.619 172.917 162.601 C 172.898 162.583 172.72 162.679 172.52 162.814 C 172.32 162.949 172.141 163.044 172.122 163.025 C 172.025 162.93 173.214 162.312 173.377 162.373 C 173.457 162.403 173.414 162.453 173.199 162.576 C 173.043 162.666 172.812 162.817 172.686 162.912 C 172.365 163.152 172.292 163.188 172.292 163.107 Z M 173.211 162.493 C 173.302 162.442 173.346 162.401 173.31 162.401 C 173.274 162.401 173.17 162.442 173.08 162.493 C 172.99 162.544 172.945 162.585 172.982 162.585 C 173.018 162.585 173.121 162.544 173.211 162.493 Z M 169.533 161.906 C 168.076 161.642 167.12 161.148 166.219 160.192 C 165.658 159.597 165.303 159.009 165.048 158.253 C 164.871 157.727 164.843 157.542 164.817 156.732 C 164.792 155.946 164.809 155.72 164.93 155.205 C 165.236 153.907 166.039 152.761 167.179 152.002 C 168.022 151.439 168.871 151.176 170.009 151.123 C 171.717 151.045 172.988 151.493 174.149 152.582 C 175.291 153.653 175.839 154.933 175.839 156.525 C 175.839 157.558 175.588 158.492 175.082 159.34 C 174.904 159.639 174.903 159.65 174.915 160.734 C 174.927 161.757 174.92 161.825 174.809 161.804 C 174.702 161.784 174.688 161.693 174.671 160.951 C 174.656 160.292 174.673 160.09 174.753 159.971 C 174.959 159.662 174.842 159.733 174.459 160.15 C 173.395 161.308 172.141 161.869 170.518 161.913 C 170.066 161.925 169.623 161.922 169.533 161.906 Z M 171.503 160.548 C 173.455 160.014 174.723 158.054 174.46 155.978 C 174.334 154.983 174.003 154.288 173.312 153.569 C 172.563 152.79 171.714 152.416 170.551 152.354 C 169.11 152.277 167.916 152.79 167.046 153.86 C 166.414 154.638 166.154 155.401 166.153 156.493 C 166.151 157.33 166.239 157.73 166.577 158.429 C 167.148 159.606 168.345 160.479 169.631 160.655 C 170.143 160.725 171.046 160.673 171.503 160.548 Z M 170.748 160.255 C 171.352 159.945 172.029 159.298 172.401 158.675 C 172.891 157.853 173.081 156.535 172.854 155.532 C 172.626 154.524 171.95 153.538 171.11 152.987 C 170.831 152.804 170.748 152.72 170.82 152.693 C 170.876 152.672 170.977 152.684 171.044 152.719 C 171.208 152.805 171.377 152.805 171.241 152.719 C 171.033 152.587 171.262 152.663 171.653 152.856 C 172.253 153.151 173.062 153.975 173.362 154.596 C 174.275 156.485 173.712 158.799 172.067 159.912 C 171.865 160.048 171.715 160.173 171.732 160.191 C 171.788 160.246 172.309 159.858 172.683 159.482 C 173.437 158.726 173.795 157.886 173.851 156.744 C 173.877 156.202 173.859 155.907 173.774 155.532 C 173.544 154.518 172.861 153.526 172.024 152.989 C 171.726 152.798 171.655 152.725 171.736 152.694 C 171.796 152.672 171.995 152.728 172.183 152.82 C 172.95 153.197 173.61 153.855 173.996 154.625 C 174.566 155.76 174.532 157.413 173.916 158.548 C 173.653 159.033 172.932 159.789 172.48 160.054 C 171.942 160.369 171.814 160.385 172.273 160.079 C 173.558 159.224 174.278 157.767 174.175 156.231 C 174.102 155.125 173.694 154.228 172.922 153.47 C 172.585 153.138 171.958 152.72 171.799 152.72 C 171.763 152.72 171.896 152.811 172.095 152.922 C 172.293 153.033 172.668 153.335 172.927 153.593 C 174.061 154.719 174.407 156.35 173.862 157.989 C 173.579 158.839 172.801 159.734 171.972 160.161 C 171.523 160.393 171.25 160.483 171.569 160.294 L 171.733 160.197 L 171.569 160.234 L 171.405 160.271 L 171.567 160.156 C 172.358 159.594 172.82 159.088 173.147 158.422 C 173.729 157.236 173.695 155.604 173.065 154.442 C 172.811 153.974 172.139 153.253 171.699 152.975 C 171.516 152.861 171.352 152.781 171.334 152.799 C 171.315 152.817 171.436 152.91 171.602 153.006 C 172.285 153.398 172.961 154.239 173.259 155.064 C 173.505 155.747 173.546 156.942 173.347 157.656 C 173.268 157.936 173.111 158.337 172.998 158.546 C 172.733 159.033 172.013 159.788 171.56 160.054 C 171.023 160.369 170.894 160.385 171.353 160.079 C 173.595 158.587 173.931 155.409 172.048 153.512 C 171.733 153.195 171.155 152.783 171.023 152.783 C 170.99 152.783 171.143 152.901 171.364 153.046 C 172.942 154.081 173.582 156.082 172.943 157.989 C 172.661 158.831 171.872 159.738 171.056 160.159 C 170.804 160.29 170.572 160.395 170.541 160.393 C 170.51 160.392 170.603 160.33 170.748 160.255 Z M 191.232 161.884 C 191.045 161.854 190.685 161.769 190.433 161.694 C 190.181 161.619 189.92 161.574 189.854 161.596 C 189.777 161.62 189.762 161.614 189.811 161.578 C 189.864 161.541 189.757 161.454 189.483 161.313 C 188.258 160.683 187.198 159.399 186.809 158.072 C 186.626 157.45 186.561 156.182 186.678 155.534 C 186.787 154.927 187.062 154.173 187.341 153.714 C 187.653 153.201 188.51 152.325 189.038 151.98 C 189.596 151.616 190.349 151.318 191.038 151.19 C 191.693 151.068 193.082 151.109 193.673 151.269 C 195.605 151.792 197.142 153.398 197.546 155.317 C 197.674 155.927 197.679 157.119 197.556 157.691 C 197.132 159.652 195.597 161.241 193.624 161.761 C 193.089 161.901 191.777 161.969 191.232 161.884 Z M 193.511 160.488 C 194.777 160.094 195.816 158.98 196.185 157.622 C 196.339 157.057 196.335 155.933 196.177 155.364 C 195.788 153.96 194.748 152.903 193.343 152.484 C 192.749 152.307 191.461 152.319 190.85 152.508 C 189.513 152.921 188.451 154.04 188.078 155.428 C 187.812 156.419 188.004 157.832 188.523 158.695 C 189.002 159.492 189.959 160.246 190.85 160.528 C 191.557 160.752 192.718 160.734 193.511 160.488 Z M 192.688 160.185 C 193.232 159.896 193.947 159.177 194.247 158.617 C 194.654 157.856 194.779 157.286 194.745 156.336 C 194.721 155.676 194.684 155.437 194.546 155.054 C 194.224 154.165 193.497 153.295 192.7 152.846 C 192.243 152.589 192.374 152.602 192.875 152.864 C 193.718 153.305 194.483 154.21 194.795 155.135 C 195.345 156.767 194.806 158.73 193.536 159.72 C 193.076 160.079 193.081 160.073 193.168 160.073 C 193.307 160.073 194.161 159.229 194.432 158.824 C 194.997 157.978 195.228 156.644 194.992 155.584 C 194.762 154.549 194.174 153.659 193.329 153.064 C 192.74 152.649 192.851 152.544 193.516 152.887 C 194.351 153.318 195.118 154.235 195.426 155.17 C 195.619 155.757 195.664 156.912 195.518 157.525 C 195.302 158.434 194.643 159.41 193.91 159.909 C 193.761 160.01 193.654 160.106 193.671 160.123 C 193.734 160.186 194.388 159.653 194.701 159.284 C 195.368 158.497 195.679 157.617 195.678 156.526 C 195.676 155.254 195.327 154.375 194.497 153.55 C 194.226 153.28 193.841 152.968 193.642 152.857 C 193.24 152.633 193.24 152.582 193.642 152.783 C 193.943 152.934 194.058 152.949 193.876 152.813 C 193.67 152.661 193.836 152.704 194.162 152.889 C 194.918 153.318 195.657 154.151 195.946 154.904 C 196.377 156.021 196.333 157.34 195.83 158.384 C 195.622 158.816 195.107 159.452 194.706 159.77 C 194.415 160.002 193.706 160.399 193.595 160.393 C 193.567 160.392 193.657 160.331 193.796 160.259 C 193.935 160.188 194.034 160.114 194.016 160.097 C 193.998 160.079 193.835 160.139 193.652 160.23 C 193.133 160.488 193.027 160.369 193.505 160.062 C 194.332 159.531 195.002 158.602 195.264 157.622 C 195.416 157.053 195.414 155.925 195.259 155.369 C 195.11 154.832 194.772 154.187 194.432 153.788 C 194.131 153.436 193.414 152.846 193.293 152.851 C 193.25 152.853 193.288 152.904 193.377 152.964 C 194.351 153.624 194.915 154.389 195.194 155.428 C 195.345 155.989 195.344 157.062 195.192 157.616 C 194.979 158.393 194.499 159.154 193.895 159.675 C 193.625 159.908 192.93 160.333 192.825 160.329 C 192.787 160.328 192.839 160.282 192.942 160.227 C 193.266 160.054 193.079 160.057 192.731 160.23 C 192.255 160.467 192.221 160.432 192.688 160.185 L 192.688 160.185 Z M 193.511 160.235 C 193.601 160.184 193.645 160.143 193.609 160.143 C 193.573 160.143 193.47 160.184 193.379 160.235 C 193.289 160.285 193.245 160.327 193.281 160.327 C 193.317 160.327 193.42 160.285 193.511 160.235 Z M 194.451 159.819 C 195.425 159.029 195.921 158.027 195.988 156.719 C 196.045 155.592 195.744 154.646 195.06 153.803 C 194.766 153.439 194.065 152.862 193.998 152.928 C 193.979 152.947 194.063 153.022 194.185 153.096 C 194.48 153.275 195.073 153.898 195.331 154.299 C 195.649 154.794 195.882 155.556 195.923 156.234 C 196.007 157.603 195.433 158.959 194.446 159.728 C 194 160.075 194.002 160.073 194.074 160.073 C 194.109 160.073 194.279 159.959 194.451 159.819 Z M 193.182 152.783 C 193.128 152.749 193.054 152.721 193.018 152.721 C 192.982 152.721 192.997 152.749 193.051 152.783 C 193.105 152.818 193.179 152.846 193.215 152.846 C 193.251 152.846 193.236 152.818 193.182 152.783 Z M 156.591 156.525 C 156.591 151.866 156.603 151.235 156.69 151.235 C 156.776 151.235 156.788 151.866 156.788 156.525 C 156.788 161.185 156.776 161.815 156.69 161.815 C 156.603 161.815 156.591 161.185 156.591 156.525 Z M 156.854 156.525 C 156.854 151.278 156.855 151.235 156.985 151.235 C 157.116 151.235 157.117 151.278 157.117 156.525 C 157.117 161.772 157.116 161.815 156.985 161.815 C 156.855 161.815 156.854 161.772 156.854 156.525 Z M 157.182 156.525 C 157.182 151.866 157.194 151.235 157.281 151.235 C 157.368 151.235 157.379 151.866 157.379 156.525 C 157.379 161.185 157.368 161.815 157.281 161.815 C 157.194 161.815 157.182 161.185 157.182 156.525 Z M 157.511 156.525 C 157.511 151.866 157.523 151.235 157.609 151.235 C 157.696 151.235 157.708 151.866 157.708 156.525 C 157.708 161.185 157.696 161.815 157.609 161.815 C 157.523 161.815 157.511 161.185 157.511 156.525 Z M 157.774 156.525 C 157.774 151.278 157.775 151.235 157.905 151.235 C 158.035 151.235 158.036 151.278 158.036 156.525 C 158.036 161.772 158.035 161.815 157.905 161.815 C 157.775 161.815 157.774 161.772 157.774 156.525 Z M 158.102 156.52 L 158.102 151.225 L 160.188 151.25 C 162.1 151.272 162.304 151.285 162.638 151.408 C 163.256 151.634 163.566 151.817 163.962 152.188 C 164.57 152.758 164.868 153.494 164.866 154.428 C 164.866 154.712 164.836 155.061 164.799 155.203 C 164.695 155.61 164.67 156.569 164.746 157.201 C 164.952 158.903 165.832 160.26 167.359 161.226 C 167.59 161.373 167.738 161.493 167.687 161.494 C 167.612 161.495 167.613 161.506 167.693 161.557 C 167.747 161.592 167.762 161.62 167.726 161.62 C 167.69 161.62 167.616 161.592 167.562 161.557 C 167.474 161.502 167.474 161.495 167.562 161.493 C 167.649 161.491 167.649 161.484 167.562 161.428 C 167.431 161.345 167.347 161.347 167.4 161.432 C 167.424 161.47 167.267 161.414 167.051 161.307 C 166.273 160.921 165.408 160.112 164.9 159.296 C 164.599 158.811 164.3 157.905 164.212 157.211 C 164.15 156.718 164.154 156.623 164.241 156.528 C 164.297 156.468 164.343 156.394 164.343 156.365 C 164.343 156.336 164.166 156.478 163.949 156.68 C 163.519 157.084 162.849 157.426 162.241 157.554 C 162.042 157.596 161.325 157.647 160.648 157.668 L 159.416 157.706 L 159.416 159.761 L 159.416 161.815 L 158.759 161.815 L 158.102 161.815 L 158.102 156.52 L 158.102 156.52 Z M 167.003 161.11 C 166.424 160.738 166.077 160.427 165.643 159.89 C 165.061 159.171 164.712 158.401 164.543 157.465 C 164.443 156.907 164.458 156.196 164.575 156.045 C 164.628 155.976 164.67 155.875 164.668 155.819 C 164.667 155.764 164.602 155.835 164.525 155.977 C 164.411 156.186 164.387 156.326 164.401 156.719 C 164.451 158.155 164.996 159.402 166.013 160.411 C 166.425 160.82 167.173 161.364 167.322 161.364 C 167.363 161.364 167.219 161.25 167.003 161.11 Z M 162.328 156.272 C 162.825 156.081 163.113 155.827 163.334 155.384 C 163.482 155.087 163.513 154.935 163.517 154.501 C 163.522 153.835 163.378 153.414 163.02 153.047 C 162.523 152.54 161.96 152.396 160.464 152.396 L 159.416 152.396 L 159.416 154.435 L 159.416 156.474 L 160.68 156.446 C 161.8 156.422 161.989 156.402 162.328 156.272 L 162.328 156.272 Z M 161.162 156.108 C 161.689 155.798 161.971 155.222 161.975 154.447 C 161.979 153.783 161.809 153.336 161.419 152.983 C 161.258 152.837 161.092 152.719 161.049 152.719 C 161.006 152.719 160.987 152.702 161.008 152.682 C 161.078 152.613 161.563 152.904 161.779 153.146 C 162.054 153.453 162.167 153.723 162.217 154.188 C 162.303 155 161.971 155.733 161.362 156.076 C 160.957 156.305 160.781 156.332 161.162 156.108 L 161.162 156.108 Z M 161.474 156.226 C 161.43 156.208 161.518 156.086 161.682 155.938 C 162.132 155.531 162.267 155.191 162.27 154.456 C 162.273 153.894 162.256 153.805 162.076 153.459 C 161.951 153.219 161.769 152.997 161.583 152.855 C 161.421 152.732 161.34 152.651 161.403 152.675 C 161.466 152.699 161.567 152.738 161.627 152.762 C 161.69 152.787 161.72 152.779 161.698 152.744 C 161.636 152.645 162.056 152.687 162.28 152.801 C 162.536 152.932 162.885 153.319 163.007 153.606 C 163.146 153.933 163.19 154.587 163.097 154.966 C 162.981 155.441 162.679 155.853 162.281 156.076 C 161.959 156.258 161.708 156.339 161.912 156.196 C 161.991 156.14 161.982 156.133 161.863 156.159 C 161.768 156.179 161.731 156.166 161.759 156.121 C 161.787 156.076 161.761 156.067 161.688 156.095 C 161.625 156.119 161.553 156.138 161.529 156.139 C 161.505 156.14 161.53 156.168 161.584 156.203 C 161.684 156.266 161.613 156.282 161.474 156.226 Z M 162.337 155.91 C 162.726 155.529 162.853 155.214 162.883 154.557 C 162.918 153.808 162.766 153.37 162.338 152.983 C 162.178 152.837 162.011 152.719 161.967 152.719 C 161.923 152.719 161.988 152.792 162.112 152.882 C 162.385 153.08 162.676 153.492 162.765 153.808 C 162.863 154.153 162.846 154.778 162.728 155.166 C 162.654 155.414 162.536 155.596 162.305 155.823 C 162.128 155.996 162.011 156.138 162.045 156.138 C 162.078 156.138 162.209 156.036 162.337 155.91 L 162.337 155.91 Z M 162.101 155.847 C 162.375 155.541 162.474 155.337 162.569 154.885 C 162.713 154.195 162.532 153.497 162.093 153.057 C 161.942 152.907 161.794 152.783 161.762 152.783 C 161.731 152.783 161.797 152.859 161.908 152.951 C 162.378 153.339 162.636 154.141 162.509 154.815 C 162.426 155.258 162.29 155.525 161.99 155.832 C 161.86 155.965 161.787 156.073 161.826 156.073 C 161.866 156.073 161.99 155.971 162.101 155.847 L 162.101 155.847 Z M 162.6 155.939 C 163.06 155.523 163.192 155.192 163.193 154.456 C 163.193 153.897 163.175 153.804 162.995 153.459 C 162.872 153.222 162.691 152.999 162.514 152.867 C 162.19 152.624 162.203 152.6 162.564 152.78 C 163.288 153.143 163.643 154.18 163.365 155.123 C 163.266 155.459 162.861 155.957 162.565 156.108 C 162.279 156.253 162.285 156.225 162.6 155.939 Z M 174.394 161.086 C 174.394 160.544 174.419 160.324 174.49 160.231 C 174.577 160.119 174.587 160.195 174.589 160.961 C 174.591 161.678 174.575 161.815 174.493 161.815 C 174.411 161.815 174.394 161.691 174.394 161.086 Z M 174.987 160.702 C 174.989 159.879 175.012 159.56 175.077 159.477 C 175.125 159.415 175.183 159.364 175.206 159.364 C 175.229 159.364 175.248 159.915 175.248 160.59 C 175.248 161.772 175.243 161.815 175.117 161.815 C 174.99 161.815 174.985 161.773 174.987 160.702 Z M 175.316 160.444 C 175.318 159.378 175.339 159.038 175.412 158.912 C 175.496 158.769 175.506 158.922 175.508 160.283 C 175.51 161.603 175.497 161.815 175.412 161.815 C 175.328 161.815 175.314 161.621 175.316 160.444 Z M 175.601 161.72 C 175.58 161.668 175.577 160.876 175.594 159.962 C 175.618 158.683 175.649 158.232 175.728 158.009 C 175.825 157.734 175.831 157.826 175.835 159.767 C 175.839 161.565 175.827 161.815 175.739 161.815 C 175.683 161.815 175.621 161.772 175.601 161.72 L 175.601 161.72 Z M 175.905 156.478 L 175.905 151.14 L 176.094 151.333 C 176.197 151.439 177.192 152.512 178.303 153.719 C 180.298 155.883 181.148 156.783 181.199 156.783 C 181.246 156.783 182.166 155.807 184.18 153.622 C 185.276 152.433 186.241 151.389 186.327 151.301 L 186.482 151.141 L 186.482 156.478 L 186.482 161.815 L 185.825 161.815 L 185.168 161.815 L 185.168 158.106 C 185.168 156.065 185.146 154.398 185.118 154.401 C 185.091 154.404 184.685 154.827 184.215 155.342 C 183.745 155.857 182.881 156.806 182.294 157.45 C 181.707 158.095 181.21 158.616 181.189 158.609 C 181.169 158.602 180.718 158.122 180.187 157.541 C 178.016 155.166 177.329 154.427 177.275 154.407 C 177.244 154.395 177.219 156.044 177.219 158.1 L 177.219 161.815 L 176.562 161.815 L 175.905 161.815 L 175.905 156.478 Z M 183.593 158.993 C 183.595 156.748 183.613 156.147 183.682 156.057 C 183.73 155.995 183.789 155.944 183.812 155.944 C 183.835 155.944 183.854 157.265 183.854 158.88 C 183.854 161.772 183.852 161.815 183.722 161.815 C 183.593 161.815 183.591 161.773 183.593 158.993 Z M 183.92 158.796 C 183.92 155.803 183.932 155.622 184.13 155.622 C 184.159 155.622 184.182 157.015 184.182 158.719 C 184.182 161.772 184.18 161.815 184.051 161.815 C 183.921 161.815 183.92 161.772 183.92 158.796 Z M 184.248 158.634 C 184.248 155.937 184.263 155.434 184.344 155.328 C 184.43 155.217 184.441 155.588 184.443 158.509 C 184.445 161.406 184.433 161.815 184.347 161.815 C 184.26 161.815 184.248 161.419 184.248 158.634 Z M 184.511 158.5 C 184.511 155.298 184.515 155.179 184.64 155.032 C 184.769 154.88 184.769 154.891 184.771 158.348 C 184.774 161.773 184.772 161.815 184.642 161.815 C 184.512 161.815 184.511 161.772 184.511 158.5 Z M 184.839 158.327 C 184.839 154.943 184.858 154.59 185.039 154.59 C 185.079 154.59 185.102 155.925 185.102 158.203 C 185.102 161.772 185.1 161.815 184.971 161.815 C 184.841 161.815 184.839 161.772 184.839 158.327 Z M 166.642 161.557 C 166.555 161.502 166.555 161.495 166.642 161.493 C 166.73 161.491 166.73 161.484 166.642 161.428 C 166.511 161.345 166.427 161.347 166.481 161.432 C 166.564 161.566 165.725 161.104 165.348 160.81 C 164.453 160.11 163.796 159.171 163.503 158.17 C 163.301 157.482 163.272 157.256 163.382 157.214 C 163.502 157.169 163.555 157.222 163.555 157.387 C 163.555 157.644 163.771 158.373 163.983 158.828 C 164.279 159.463 164.602 159.924 165.089 160.407 C 165.513 160.827 166.22 161.348 166.284 161.286 C 166.303 161.266 166.222 161.194 166.103 161.124 C 165.426 160.727 164.665 159.939 164.244 159.203 C 163.982 158.743 163.715 157.988 163.633 157.472 C 163.581 157.148 163.588 157.093 163.688 157.04 C 163.789 156.987 163.808 157.024 163.848 157.349 C 163.919 157.936 164.31 159.002 164.635 159.494 C 165.03 160.093 165.71 160.759 166.339 161.162 C 166.623 161.344 166.815 161.493 166.766 161.494 C 166.694 161.495 166.696 161.508 166.774 161.557 C 166.828 161.592 166.843 161.62 166.806 161.62 C 166.77 161.62 166.696 161.592 166.642 161.557 L 166.642 161.557 Z M 188.892 161.571 C 188.941 161.54 188.817 161.445 188.558 161.313 C 187.761 160.907 186.547 159.742 186.547 159.384 C 186.547 159.302 186.558 159.235 186.571 159.235 C 186.584 159.235 186.698 159.387 186.824 159.573 C 187.309 160.288 187.996 160.914 188.768 161.346 C 189.029 161.491 189.09 161.551 189.009 161.581 C 188.863 161.636 188.796 161.631 188.892 161.571 Z M 166.798 161.341 C 166.218 161.034 165.793 160.712 165.341 160.238 C 164.609 159.469 164.311 158.931 164.04 157.888 C 163.86 157.195 163.843 156.896 163.977 156.787 C 164.055 156.723 164.077 156.761 164.111 157.021 C 164.198 157.691 164.424 158.528 164.631 158.952 C 165.105 159.919 165.993 160.83 166.988 161.369 C 167.177 161.471 167.302 161.555 167.266 161.555 C 167.23 161.554 167.019 161.458 166.798 161.341 Z M 188.025 161.352 C 187.809 161.242 187.528 161.078 187.401 160.988 C 187.029 160.722 186.547 160.247 186.547 160.146 C 186.547 160.094 186.747 160.24 186.991 160.469 C 187.44 160.892 187.848 161.204 187.893 161.16 C 187.907 161.147 187.723 160.991 187.486 160.814 C 186.984 160.441 186.526 159.935 186.558 159.791 C 186.573 159.724 186.697 159.829 186.925 160.103 C 187.212 160.446 187.827 160.957 188.426 161.349 C 188.541 161.424 188.538 161.428 188.387 161.395 L 188.222 161.358 L 188.387 161.456 C 188.678 161.628 188.431 161.557 188.025 161.352 Z M 188.161 161.265 C 188.09 161.213 188.002 161.171 187.964 161.172 C 187.925 161.173 187.951 161.217 188.021 161.269 C 188.092 161.321 188.18 161.363 188.219 161.362 C 188.257 161.361 188.231 161.317 188.161 161.265 Z M 188.948 161.353 C 188.413 161.082 187.969 160.748 187.49 160.256 C 186.93 159.679 186.547 159.083 186.549 158.789 C 186.551 158.562 186.556 158.566 186.797 159.013 C 186.932 159.263 187.15 159.612 187.281 159.787 C 187.666 160.301 188.727 161.245 188.819 161.154 C 188.836 161.138 188.727 161.045 188.579 160.949 C 188.186 160.694 187.531 160.03 187.202 159.555 C 186.747 158.896 186.55 158.38 186.553 157.848 L 186.554 157.396 L 186.676 157.848 C 187.09 159.387 187.829 160.356 189.345 161.349 C 189.461 161.424 189.458 161.428 189.306 161.395 L 189.142 161.358 L 189.306 161.456 C 189.597 161.628 189.352 161.557 188.948 161.353 Z M 189.08 161.265 C 189.01 161.213 188.921 161.171 188.883 161.172 C 188.845 161.173 188.871 161.217 188.941 161.269 C 189.011 161.321 189.1 161.363 189.138 161.362 C 189.177 161.361 189.15 161.317 189.08 161.265 Z M 179.088 157.357 C 177.53 155.656 177.284 155.372 177.287 155.28 C 177.291 155.189 177.76 155.672 179.219 157.267 C 180.363 158.518 180.401 158.564 180.321 158.613 C 180.292 158.631 179.737 158.066 179.088 157.357 Z M 178.626 157.512 C 178.087 156.919 177.564 156.346 177.465 156.239 C 177.282 156.042 177.24 155.944 177.338 155.944 C 177.393 155.944 177.753 156.324 179.016 157.714 C 179.679 158.444 179.787 158.59 179.661 158.59 C 179.631 158.59 179.165 158.105 178.626 157.512 Z M 178.784 157.359 C 178.158 156.683 177.564 156.025 177.465 155.898 C 177.161 155.51 177.341 155.565 177.723 155.977 C 178.838 157.18 180.014 158.48 180.033 158.531 C 180.114 158.75 179.778 158.435 178.784 157.359 Z M 179.546 157.51 C 179.007 156.916 178.399 156.256 178.196 156.042 C 177.629 155.446 177.284 155.04 177.284 154.967 C 177.284 154.856 177.375 154.929 177.775 155.364 C 177.988 155.594 178.404 156.044 178.7 156.364 C 179.841 157.595 180.635 158.485 180.635 158.536 C 180.635 158.68 180.451 158.507 179.546 157.51 Z M 179.704 157.351 C 179.078 156.67 178.277 155.798 177.925 155.414 C 177.342 154.779 177.174 154.542 177.348 154.6 C 177.384 154.612 177.746 154.987 178.153 155.434 C 178.561 155.881 179.352 156.746 179.912 157.357 C 180.472 157.968 180.94 158.496 180.952 158.529 C 181.031 158.747 180.704 158.439 179.704 157.351 Z M 181.141 156.676 C 181.119 156.641 181.194 156.512 181.308 156.391 C 181.481 156.206 186.049 151.267 186.137 151.17 C 186.153 151.153 186.155 151.201 186.143 151.279 C 186.13 151.356 185.171 152.445 184.01 153.698 C 181.154 156.783 181.187 156.749 181.141 156.676 L 181.141 156.676 Z M 180.974 156.465 C 181.014 156.355 185.772 151.235 185.834 151.235 C 185.964 151.235 185.7 151.538 183.43 153.993 C 181.378 156.213 180.885 156.709 180.974 156.465 Z M 180.843 156.272 C 180.86 156.226 183.839 152.98 185.347 151.365 C 185.502 151.198 185.559 151.167 185.56 151.249 C 185.561 151.31 184.525 152.478 183.259 153.846 C 181.236 156.029 180.755 156.512 180.843 156.272 Z M 180.605 156.077 C 180.493 155.955 180.552 155.884 182.673 153.593 C 184.651 151.458 185.101 151.006 184.913 151.348 C 184.879 151.41 183.902 152.486 182.743 153.739 C 181.584 154.993 180.635 156.03 180.635 156.046 C 180.635 156.061 180.647 156.073 180.661 156.073 C 180.685 156.073 184.938 151.495 185.153 151.238 C 185.227 151.151 185.235 151.155 185.219 151.276 C 185.203 151.397 180.863 156.187 180.76 156.198 C 180.738 156.201 180.669 156.146 180.605 156.077 Z M 186.554 155.17 C 186.545 154.008 187.806 152.392 189.296 151.658 C 189.49 151.562 189.658 151.494 189.67 151.506 C 189.683 151.518 189.536 151.609 189.344 151.708 C 188.153 152.32 187.099 153.648 186.716 155.019 L 186.557 155.59 L 186.554 155.17 Z M 175.712 154.977 C 175.61 154.593 175.53 151.853 175.609 151.442 C 175.646 151.245 175.664 151.228 175.746 151.31 C 175.826 151.387 175.838 151.725 175.824 153.367 C 175.807 155.213 175.801 155.31 175.712 154.977 Z M 164.934 154.481 C 164.934 153.714 166.227 152.281 167.478 151.663 C 168.07 151.37 168.195 151.357 167.652 151.645 C 166.539 152.233 165.563 153.266 165.142 154.299 C 164.943 154.788 164.934 154.795 164.934 154.481 Z M 186.55 154.243 C 186.544 153.744 187.55 152.537 188.452 151.959 C 188.686 151.809 188.847 151.686 188.81 151.686 C 188.515 151.686 187.37 152.692 186.868 153.39 C 186.598 153.765 186.547 153.81 186.547 153.67 C 186.547 153.364 187.58 152.279 188.224 151.908 C 188.389 151.813 188.508 151.72 188.489 151.701 C 188.411 151.624 187.661 152.19 187.122 152.733 C 186.778 153.078 186.547 153.268 186.547 153.203 C 186.547 153.057 187.204 152.392 187.638 152.098 C 187.833 151.966 187.98 151.846 187.964 151.831 C 187.915 151.783 187.318 152.217 186.945 152.571 C 186.748 152.759 186.578 152.912 186.567 152.912 C 186.556 152.912 186.547 152.869 186.547 152.817 C 186.547 152.621 187.877 151.67 188.354 151.525 C 188.426 151.503 188.372 151.547 188.233 151.623 C 187.864 151.823 187.986 151.853 188.378 151.658 C 188.73 151.483 188.928 151.433 188.649 151.59 C 188.457 151.698 188.503 151.713 188.747 151.622 C 188.862 151.579 188.906 151.579 188.879 151.622 C 188.828 151.704 188.915 151.703 189.044 151.622 C 189.131 151.566 189.131 151.559 189.044 151.556 C 188.963 151.554 188.965 151.542 189.054 151.491 C 189.115 151.456 189.211 151.446 189.27 151.468 C 189.347 151.497 189.266 151.572 188.973 151.742 C 188.051 152.278 187.154 153.226 186.737 154.106 L 186.553 154.493 L 186.55 154.243 L 186.55 154.243 Z M 175.396 154.116 C 175.338 153.991 175.314 153.521 175.314 152.54 C 175.314 151.29 175.324 151.153 175.413 151.241 C 175.498 151.324 175.511 151.564 175.496 152.816 C 175.481 154.058 175.465 154.265 175.396 154.116 Z M 164.938 153.804 C 164.933 153.571 165.587 152.767 166.156 152.305 C 166.396 152.111 166.793 151.849 167.038 151.722 C 167.564 151.451 167.745 151.414 167.258 151.677 C 166.854 151.896 166.227 152.366 165.943 152.664 C 165.747 152.869 165.188 153.589 165.02 153.854 C 164.948 153.968 164.942 153.964 164.938 153.804 Z M 175.099 153.55 C 174.996 153.402 174.984 153.246 175 152.26 C 175.018 151.163 175.021 151.142 175.135 151.306 C 175.237 151.455 175.249 151.61 175.233 152.597 C 175.216 153.694 175.213 153.715 175.099 153.55 Z M 164.84 153.5 C 164.749 153.356 165.578 152.448 166.124 152.093 C 166.266 152.001 166.368 151.912 166.351 151.895 C 166.288 151.833 165.645 152.355 165.198 152.832 C 164.866 153.186 164.737 153.288 164.737 153.197 C 164.737 153.068 165.428 152.366 165.854 152.062 C 166.093 151.891 166.995 151.428 167.084 151.429 C 167.112 151.43 167.091 151.458 167.036 151.493 C 166.949 151.548 166.949 151.556 167.036 151.558 C 167.091 151.559 166.987 151.651 166.806 151.761 C 166.08 152.208 165.509 152.736 164.979 153.454 C 164.914 153.542 164.875 153.555 164.84 153.5 Z M 166.718 151.719 C 166.875 151.631 166.98 151.559 166.952 151.558 C 166.879 151.557 166.379 151.811 166.379 151.849 C 166.379 151.902 166.422 151.885 166.718 151.719 Z M 174.788 153.138 C 174.682 153.012 174.606 151.698 174.688 151.381 C 174.725 151.235 174.742 151.226 174.827 151.31 C 174.905 151.386 174.92 151.584 174.905 152.33 C 174.889 153.162 174.877 153.243 174.788 153.138 Z M 164.606 152.926 C 164.606 152.762 165.623 151.964 166.192 151.682 C 166.678 151.441 166.781 151.438 166.339 151.677 C 165.894 151.918 165.283 152.384 164.981 152.712 C 164.753 152.96 164.606 153.044 164.606 152.926 Z M 174.474 152.768 C 174.413 152.696 174.395 152.454 174.408 151.903 C 174.424 151.243 174.438 151.158 174.511 151.283 C 174.632 151.491 174.596 152.913 174.474 152.768 Z" fill="#503E9D" transform="matrix(1, 0, 0, 1, 225.388641, -47.063789)"/>
</svg>